<svg viewBox="0 0 1341 153" fill="none" xmlns="http://www.w3.org/2000/svg">
<path d="M109.065 128.2C109.065 127.782 109.148 127.367 109.309 126.981C109.469 126.594 109.705 126.243 110.002 125.948C110.299 125.652 110.651 125.418 111.038 125.259C111.426 125.1 111.841 125.019 112.26 125.02H151.646C160.57 125.02 168.094 123.426 174.217 120.238C180.374 117.005 185.244 111.772 188.024 105.401C191.145 98.6898 192.705 90.0144 192.705 79.3746C192.705 68.7349 191.145 60.114 188.024 53.512C185.251 47.1659 180.392 41.9562 174.252 38.745C168.16 35.5881 160.648 34.0057 151.716 33.998H112.26C111.841 33.9995 111.426 33.9184 111.038 33.7593C110.651 33.6002 110.299 33.3661 110.002 33.0707C109.705 32.7752 109.469 32.4241 109.309 32.0375C109.148 31.6509 109.065 31.2364 109.065 30.8178V11.3389C109.065 10.9197 109.148 10.5047 109.309 10.1174C109.469 9.73017 109.704 9.37821 110.001 9.08182C110.298 8.78542 110.65 8.55044 111.037 8.39003C111.425 8.22962 111.84 8.14697 112.26 8.14697H153.319C167.688 8.14697 180.056 10.9921 190.423 16.6822C200.694 22.2805 209.044 30.8351 214.387 41.2354C219.988 51.8751 222.788 64.6076 222.788 79.433C222.788 94.2585 219.988 107.034 214.387 117.759C209.017 128.176 200.629 136.733 190.318 142.313C179.88 148.026 167.399 150.883 152.874 150.883H112.26C111.84 150.883 111.425 150.8 111.037 150.64C110.65 150.479 110.298 150.244 110.001 149.948C109.704 149.652 109.469 149.3 109.309 148.912C109.148 148.525 109.065 148.11 109.065 147.691V128.2Z" fill="#25437D"/>
<path d="M255.61 30.035C251.387 30.1114 247.303 28.519 244.248 25.6038C242.754 24.2723 241.559 22.6402 240.74 20.8147C239.922 18.9891 239.499 17.0112 239.499 15.0108C239.499 13.0103 239.922 11.0326 240.74 9.20702C241.559 7.38146 242.754 5.74942 244.248 4.4179C247.344 1.57667 251.395 0 255.599 0C259.802 0 263.853 1.57667 266.949 4.4179C268.43 5.75733 269.613 7.39194 270.423 9.21644C271.234 11.0409 271.652 13.0148 271.652 15.0108C271.652 17.0068 271.234 18.9806 270.423 20.8051C269.613 22.6296 268.43 24.2644 266.949 25.6038C263.906 28.5231 259.828 30.1167 255.61 30.035ZM240.621 150.872V43.8316H270.33V150.872H240.621Z" fill="#25437D"/>
<path d="M320.656 152.894C314.382 153.003 308.157 151.779 302.391 149.304C297.219 147.062 292.818 143.355 289.73 138.641C286.61 133.964 285.05 128.076 285.05 120.975C284.882 115.784 286.008 110.634 288.326 105.986C290.438 102.039 293.508 98.6864 297.254 96.2344C301.211 93.6857 305.559 91.8019 310.125 90.6574C315.117 89.3708 320.204 88.4872 325.337 88.015C331.577 87.3603 336.601 86.7444 340.408 86.1676C344.222 85.583 346.984 84.7178 348.704 83.5486C349.544 82.9859 350.224 82.2151 350.678 81.3114C351.131 80.4077 351.342 79.4021 351.29 78.3926V77.9715C351.29 73.5675 349.905 70.1535 347.136 67.7293C344.367 65.3052 340.466 64.097 335.435 64.1048C330.091 64.1048 325.836 65.274 322.669 67.6124C319.647 69.7639 317.438 72.8693 316.397 76.4282L288.853 74.2301C290.109 67.9933 292.927 62.1765 297.044 57.3236C301.354 52.414 306.802 48.6327 312.91 46.3097C320.123 43.6107 327.782 42.3014 335.482 42.4512C341.253 42.4273 347.004 43.1265 352.6 44.5325C357.807 45.8152 362.743 48.0124 367.18 51.0216C371.393 53.9082 374.849 57.7662 377.255 62.2693C379.829 67.3337 381.1 72.9595 380.952 78.638V150.836H352.811V135.987H351.969C350.253 139.34 347.909 142.333 345.065 144.803C342.02 147.436 338.491 149.449 334.674 150.731C330.157 152.234 325.418 152.965 320.656 152.894ZM329.163 132.398C333.179 132.482 337.155 131.587 340.747 129.791C343.946 128.188 346.663 125.767 348.622 122.775C350.545 119.76 351.541 116.248 351.489 112.673V101.309C350.301 102.024 349.022 102.575 347.686 102.946C345.909 103.482 344.104 103.922 342.28 104.267C340.283 104.664 338.282 105.015 336.277 105.319C334.277 105.623 332.463 105.892 330.836 106.114C327.699 106.537 324.627 107.358 321.698 108.558C319.323 109.506 317.235 111.053 315.637 113.047C314.148 115.077 313.385 117.548 313.472 120.063C313.374 121.851 313.728 123.635 314.504 125.25C315.279 126.864 316.449 128.257 317.907 129.299C321.235 131.498 325.177 132.583 329.163 132.398Z" fill="#25437D"/>
<path d="M400.704 150.871V8.14697H430.437V61.8133H431.338C432.826 58.6313 434.739 55.6657 437.024 52.9975C439.717 49.8358 443.041 47.2712 446.783 45.4679C451.491 43.3023 456.639 42.2654 461.819 42.4397C469.458 42.3892 476.955 44.5012 483.442 48.5312C490.042 52.6 495.319 58.7109 499.274 66.8641C503.229 75.0174 505.203 85.2245 505.195 97.4855C505.195 109.435 503.28 119.505 499.45 127.698C495.619 135.89 490.409 142.091 483.817 146.3C477.235 150.511 469.564 152.705 461.749 152.613C456.703 152.755 451.689 151.78 447.064 149.76C443.318 148.054 439.961 145.599 437.2 142.547C434.824 139.913 432.853 136.942 431.349 133.731H430.027V150.871H400.704ZM429.781 97.3453C429.661 103.013 430.561 108.656 432.437 114.006C433.914 118.33 436.568 122.156 440.102 125.055C443.669 127.622 447.957 128.997 452.352 128.984C456.748 128.972 461.028 127.572 464.58 124.985C468.111 122.045 470.756 118.184 472.221 113.831C474.051 108.531 474.934 102.951 474.83 97.3453C474.935 91.8036 474.064 86.2866 472.256 81.0465C470.806 76.7348 468.17 72.9182 464.651 70.0328C461.12 67.3197 456.757 65.9147 452.306 66.0575C447.91 65.9214 443.597 67.2728 440.067 69.8925C436.55 72.7271 433.905 76.4961 432.437 80.7659C430.558 86.087 429.658 91.704 429.781 97.3453Z" fill="#25437D"/>
<path d="M569.797 152.964C558.79 152.964 549.32 150.723 541.387 146.241C533.524 141.825 527.15 135.176 523.074 127.137C518.792 118.898 516.654 109.131 516.662 97.8363C516.662 86.8225 518.8 77.1611 523.074 68.852C527.124 60.7748 533.406 54.0269 541.176 49.4082C548.977 44.7314 558.123 42.393 568.615 42.393C575.355 42.3349 582.052 43.4792 588.39 45.772C594.401 47.967 599.871 51.4235 604.432 55.9088C609.199 60.7136 612.854 66.5047 615.139 72.8739C617.832 80.5397 619.128 88.6261 618.965 96.749V104.933H528.515V86.542H590.999C591.079 82.5759 590.119 78.658 588.214 75.1774C586.404 71.93 583.737 69.2408 580.503 67.4022C577.019 65.4753 573.088 64.5032 569.106 64.5844C564.911 64.4993 560.773 65.5714 557.148 67.6828C553.751 69.6842 550.946 72.5482 549.016 75.9841C547.046 79.5072 546.015 83.4767 546.02 87.5123V105.05C545.897 109.796 546.912 114.503 548.981 118.777C550.845 122.509 553.766 125.612 557.382 127.698C561.319 129.862 565.761 130.944 570.253 130.831C573.332 130.869 576.396 130.399 579.321 129.44C581.943 128.581 584.341 127.151 586.342 125.254C588.332 123.35 589.858 121.014 590.8 118.426L618.286 120.238C616.991 126.636 614.046 132.584 609.744 137.496C605.195 142.565 599.504 146.481 593.14 148.919C585.69 151.748 577.765 153.121 569.797 152.964Z" fill="#25437D"/>
<path d="M687.486 43.8311V66.1277H622.966V43.8311H687.486ZM637.616 18.179H667.325V117.982C667.212 120.176 667.642 122.365 668.577 124.354C669.335 125.792 670.579 126.915 672.088 127.522C673.769 128.159 675.556 128.469 677.353 128.434C678.758 128.434 680.16 128.305 681.542 128.049L684.748 127.452L689.429 149.55C687.931 150.006 685.848 150.556 683.145 151.187C679.912 151.882 676.622 152.273 673.316 152.356C666.916 152.753 660.506 151.78 654.512 149.503C649.38 147.505 645.005 143.947 642.004 139.331C639.016 134.725 637.55 128.914 637.604 121.899L637.616 18.179Z" fill="#25437D"/>
<path d="M746.588 152.964C735.566 152.964 726.092 150.723 718.166 146.241C710.304 141.826 703.93 135.176 699.854 127.137C695.579 118.898 693.442 109.131 693.442 97.8364C693.442 86.8225 695.579 77.1611 699.854 68.852C703.904 60.7748 710.186 54.027 717.956 49.4082C725.756 44.7314 734.903 42.393 745.395 42.393C752.135 42.334 758.832 43.4783 765.17 45.772C771.183 47.9615 776.654 51.4187 781.212 55.9089C785.983 60.7108 789.638 66.5027 791.918 72.874C794.622 80.5377 795.922 88.6251 795.756 96.7491V104.934H705.295V86.542H767.791C767.867 82.5749 766.903 78.657 764.994 75.1774C763.188 71.9309 760.524 69.2416 757.295 67.4022C753.807 65.4739 749.871 64.5018 745.886 64.5844C741.691 64.5006 737.554 65.5726 733.928 67.6828C730.532 69.6819 727.73 72.5468 725.807 75.9841C723.834 79.5064 722.798 83.4758 722.8 87.5124V105.05C722.68 109.797 723.699 114.504 725.772 118.777C727.629 122.514 730.553 125.618 734.173 127.698C738.11 129.864 742.552 130.945 747.045 130.831C750.12 130.87 753.18 130.4 756.101 129.44C758.725 128.586 761.124 127.156 763.122 125.254C765.112 123.347 766.641 121.012 767.592 118.426L795.066 120.238C793.774 126.637 790.829 132.586 786.524 137.496C781.979 142.565 776.292 146.481 769.932 148.919C762.481 151.747 754.557 153.12 746.588 152.964Z" fill="#25437D"/>
<path d="M896.421 74.3478L869.216 76.0316C868.758 73.7108 867.729 71.5407 866.22 69.7178C864.588 67.7606 862.52 66.2112 860.183 65.193C857.377 63.9865 854.343 63.4041 851.29 63.4861C847.196 63.3389 843.143 64.3393 839.589 66.3739C836.43 68.3031 834.909 70.8636 834.909 74.0789C834.894 75.3202 835.163 76.5484 835.694 77.6706C836.225 78.7928 837.005 79.7797 837.974 80.5564C840.026 82.3257 843.536 83.7444 848.505 84.8123L867.894 88.7056C878.308 90.8414 886.073 94.2788 891.19 99.0179C896.308 103.757 898.862 109.993 898.854 117.725C898.97 124.402 896.794 130.917 892.688 136.187C888.253 141.723 882.432 145.991 875.815 148.557C867.97 151.643 859.591 153.15 851.161 152.988C836.98 152.988 825.692 150.026 817.298 144.102C813.247 141.343 809.833 137.749 807.287 133.563C804.74 129.376 803.118 124.694 802.532 119.83L831.784 118.286C832.125 120.281 832.869 122.185 833.971 123.882C835.074 125.578 836.512 127.032 838.196 128.154C841.59 130.407 845.939 131.533 851.243 131.533C856.548 131.533 860.74 130.524 863.822 128.505C867.02 126.479 868.639 123.863 868.678 120.66C868.668 119.361 868.353 118.083 867.76 116.928C867.167 115.773 866.311 114.772 865.261 114.007C863.03 112.269 859.586 110.932 854.929 109.997L836.383 106.302C825.922 104.221 818.145 100.596 813.051 95.4285C807.957 90.2607 805.414 83.6898 805.422 75.7158C805.266 69.3347 807.237 63.0827 811.027 57.9439C815.129 52.7108 820.612 48.7262 826.858 46.439C834.521 43.6013 842.651 42.2329 850.822 42.4054C864.348 42.4054 875.008 45.262 882.801 50.9755C886.588 53.6957 889.758 57.1832 892.105 61.2105C894.452 65.2377 895.922 69.7142 896.421 74.3478Z" fill="#25437D"/>
<path d="M80.5621 8.14697H56.6918C54.1715 8.14697 52.1284 10.1885 52.1284 12.7068V145.844C52.1284 148.362 54.1715 150.404 56.6918 150.404H80.5621C83.0824 150.404 85.1255 148.362 85.1255 145.844V12.7068C85.1255 10.1885 83.0824 8.14697 80.5621 8.14697Z" fill="#5398FF"/>
<path d="M137.254 91.2069V67.3552C137.254 64.8369 135.211 62.7954 132.691 62.7954L4.56364 62.7954C2.04333 62.7954 0.000183105 64.8369 0.000183105 67.3552V91.2069C0.000183105 93.7253 2.04333 95.7668 4.56364 95.7668H132.691C135.211 95.7668 137.254 93.7253 137.254 91.2069Z" fill="#5398FF"/>
<path d="M929.066 6.34644H944.114L995.786 130.282H997.038L1048.72 6.34644H1063.75V148.673H1051.51V33.7994H1050.34L1002.27 148.673H990.45L942.382 33.7994H941.212V148.673H928.973L929.066 6.34644Z" fill="#25437D"/>
<path d="M1124.91 151.106C1118.81 151.181 1112.77 149.886 1107.24 147.317C1102.05 144.926 1097.63 141.121 1094.51 136.339C1091.25 131.103 1089.62 125.02 1089.83 118.859C1089.68 114.232 1090.7 109.642 1092.81 105.519C1094.84 101.877 1097.76 98.8144 1101.31 96.621C1105.34 94.1494 1109.72 92.3007 1114.31 91.1374C1119.75 89.7127 1125.28 88.6658 1130.86 88.004C1136.85 87.2713 1141.92 86.6243 1146.07 86.0631C1149.37 85.751 1152.58 84.8563 1155.56 83.4207C1156.61 82.862 1157.48 82.0138 1158.06 80.9772C1158.64 79.9406 1158.9 78.7594 1158.83 77.5747V75.0843C1158.83 67.7963 1156.66 62.0594 1152.33 57.8737C1148 53.688 1141.76 51.5912 1133.61 51.5834C1125.91 51.5834 1119.64 53.2748 1114.8 56.6577C1110.33 59.5938 1106.79 63.7434 1104.61 68.6186L1092.85 64.3744C1094.97 58.938 1098.41 54.1157 1102.86 50.344C1107.08 46.876 1111.95 44.2986 1117.2 42.7676C1122.41 41.2263 1127.82 40.4388 1133.26 40.4292C1137.57 40.4588 1141.85 40.9965 1146.03 42.031C1150.45 43.0956 1154.64 44.9707 1158.37 47.5613C1162.33 50.3563 1165.51 54.11 1167.62 58.47C1169.96 63.1468 1171.13 69.0435 1171.13 76.16V148.65H1158.74V131.767H1157.97C1156.3 135.176 1154.07 138.279 1151.36 140.945C1148.21 144.065 1144.48 146.543 1140.38 148.241C1135.47 150.237 1130.2 151.212 1124.91 151.106ZM1126.57 139.788C1132.57 139.939 1138.5 138.422 1143.69 135.403C1148.4 132.591 1152.26 128.549 1154.85 123.711C1157.48 118.786 1158.83 113.277 1158.77 107.693V92.2716C1157.39 93.3742 1155.8 94.1713 1154.09 94.61C1151.65 95.3751 1149.16 95.9881 1146.65 96.4456C1143.84 96.9834 1141.05 97.4278 1138.27 97.8019C1135.48 98.176 1132.98 98.5034 1130.76 98.7723C1125.49 99.3511 1120.31 100.528 1115.31 102.28C1111.52 103.533 1108.14 105.773 1105.51 108.769C1103.15 111.789 1101.94 115.547 1102.1 119.374C1102.1 125.859 1104.42 130.875 1109.05 134.421C1113.69 137.968 1119.52 139.757 1126.57 139.788Z" fill="#25437D"/>
<path d="M1238.3 41.9251V52.6934H1187.32V41.9251H1238.3ZM1203.2 16.3547H1215.65V120.811C1215.65 125.254 1216.43 128.738 1217.99 131.264C1219.36 133.644 1221.45 135.522 1223.97 136.619C1226.46 137.669 1229.13 138.202 1231.83 138.185C1233.23 138.203 1234.62 138.098 1236 137.87C1237.17 137.659 1238.19 137.437 1239.06 137.215L1241.71 148.404C1240.26 148.933 1238.77 149.363 1237.26 149.69C1235.11 150.115 1232.92 150.311 1230.72 150.275C1226.18 150.278 1221.69 149.255 1217.6 147.282C1213.14 145.223 1209.39 141.883 1206.83 137.687C1204.28 133.491 1203.03 128.63 1203.25 123.722L1203.2 16.3547Z" fill="#25437D"/>
<path d="M1296.67 150.906C1286.7 150.906 1278.07 148.568 1270.79 143.891C1263.44 139.157 1257.59 132.434 1253.92 124.506C1249.96 116.228 1247.98 106.695 1247.98 95.9072C1247.79 86.0272 1249.82 76.231 1253.92 67.2384C1257.53 59.3056 1263.23 52.5058 1270.41 47.5724C1277.62 42.762 1286.12 40.2729 1294.78 40.4403C1300.52 40.4279 1306.21 41.5032 1311.55 43.6089C1317.01 45.775 1321.95 49.0655 1326.05 53.2664C1330.56 57.9477 1334.03 63.5248 1336.24 69.6352C1338.9 77.0906 1340.17 84.9673 1340 92.8789V98.9939H1256.53V88.0852H1327.34C1327.45 81.6707 1326.04 75.3205 1323.23 69.5534C1320.65 64.2561 1316.69 59.7523 1311.76 56.5168C1306.51 53.2789 1300.43 51.6172 1294.26 51.7291C1288.09 51.841 1282.07 53.7219 1276.94 57.1482C1271.76 60.8095 1267.61 65.7367 1264.88 71.4592C1261.95 77.53 1260.44 84.187 1260.47 90.9264V97.4505C1260.29 105.089 1261.79 112.673 1264.88 119.665C1267.55 125.675 1271.91 130.78 1277.43 134.362C1282.32 137.207 1287.77 138.937 1293.41 139.43C1299.04 139.923 1304.71 139.167 1310.02 137.215C1313.64 135.773 1316.93 133.609 1319.68 130.855C1322.21 128.328 1324.22 125.344 1325.63 122.062L1337.33 125.886C1335.59 130.553 1332.87 134.794 1329.36 138.326C1325.44 142.279 1320.76 145.387 1315.59 147.457C1309.57 149.85 1303.14 151.022 1296.67 150.906Z" fill="#25437D"/>
</svg>
