<svg width="1541" height="353" viewBox="0 0 1541 353" fill="none" xmlns="http://www.w3.org/2000/svg">
<rect width="1540.01" height="353" fill="#202020"/>
<path d="M209.066 228.2C209.066 227.782 209.148 227.367 209.309 226.981C209.47 226.594 209.705 226.243 210.002 225.948C210.299 225.652 210.651 225.418 211.039 225.259C211.426 225.1 211.841 225.019 212.26 225.02H251.646C260.57 225.02 268.094 223.426 274.217 220.238C280.374 217.005 285.244 211.772 288.025 205.401C291.145 198.69 292.705 190.014 292.705 179.375C292.705 168.735 291.145 160.114 288.025 153.512C285.251 147.166 280.392 141.956 274.252 138.745C268.16 135.588 260.648 134.006 251.716 133.998H212.26C211.841 133.999 211.426 133.918 211.039 133.759C210.651 133.6 210.299 133.366 210.002 133.071C209.705 132.775 209.47 132.424 209.309 132.037C209.148 131.651 209.066 131.236 209.066 130.818V111.339C209.066 110.92 209.148 110.505 209.309 110.117C209.469 109.73 209.705 109.378 210.001 109.082C210.298 108.785 210.65 108.55 211.038 108.39C211.425 108.23 211.841 108.147 212.26 108.147H253.319C267.688 108.147 280.056 110.992 290.423 116.682C300.694 122.28 309.044 130.835 314.387 141.235C319.988 151.875 322.789 164.608 322.789 179.433C322.789 194.258 319.988 207.034 314.387 217.759C309.018 228.176 300.63 236.733 290.318 242.313C279.881 248.026 267.4 250.883 252.875 250.883H212.26C211.841 250.883 211.425 250.8 211.038 250.64C210.65 250.479 210.298 250.244 210.001 249.948C209.705 249.652 209.469 249.3 209.309 248.912C209.148 248.525 209.066 248.11 209.066 247.691V228.2Z" fill="white"/>
<path d="M355.61 130.035C351.387 130.111 347.303 128.519 344.248 125.604C342.754 124.272 341.559 122.64 340.74 120.815C339.922 118.989 339.499 117.011 339.499 115.011C339.499 113.01 339.922 111.033 340.74 109.207C341.559 107.381 342.754 105.749 344.248 104.418C347.344 101.577 351.395 100 355.599 100C359.802 100 363.853 101.577 366.949 104.418C368.43 105.757 369.613 107.392 370.423 109.216C371.234 111.041 371.652 113.015 371.652 115.011C371.652 117.007 371.234 118.981 370.423 120.805C369.613 122.63 368.43 124.264 366.949 125.604C363.906 128.523 359.828 130.117 355.61 130.035ZM340.621 250.872V143.832H370.33V250.872H340.621Z" fill="white"/>
<path d="M420.656 252.894C414.382 253.003 408.157 251.78 402.391 249.305C397.219 247.062 392.818 243.355 389.73 238.642C386.61 233.965 385.05 228.076 385.05 220.975C384.882 215.784 386.008 210.634 388.326 205.986C390.438 202.04 393.508 198.687 397.254 196.235C401.211 193.686 405.559 191.802 410.125 190.658C415.117 189.371 420.204 188.487 425.337 188.015C431.577 187.361 436.601 186.745 440.408 186.168C444.222 185.583 446.984 184.718 448.704 183.549C449.544 182.986 450.224 182.215 450.678 181.312C451.131 180.408 451.342 179.402 451.29 178.393V177.972C451.29 173.568 449.905 170.154 447.136 167.73C444.367 165.305 440.466 164.097 435.435 164.105C430.091 164.105 425.836 165.274 422.669 167.613C419.647 169.764 417.438 172.87 416.397 176.428L388.853 174.23C390.109 167.994 392.927 162.177 397.044 157.324C401.354 152.414 406.802 148.633 412.91 146.31C420.123 143.611 427.782 142.302 435.482 142.451C441.253 142.428 447.004 143.127 452.6 144.533C457.807 145.815 462.743 148.013 467.18 151.022C471.393 153.908 474.849 157.766 477.255 162.269C479.829 167.334 481.1 172.96 480.952 178.638V250.836H452.811V235.987H451.969C450.253 239.34 447.909 242.333 445.065 244.803C442.02 247.436 438.491 249.45 434.674 250.731C430.157 252.234 425.418 252.965 420.656 252.894ZM429.163 232.398C433.179 232.483 437.155 231.588 440.747 229.791C443.946 228.188 446.663 225.768 448.622 222.776C450.545 219.76 451.541 216.248 451.489 212.674V201.309C450.301 202.024 449.022 202.575 447.686 202.946C445.909 203.482 444.104 203.923 442.28 204.267C440.283 204.665 438.282 205.015 436.277 205.319C434.277 205.623 432.463 205.892 430.836 206.114C427.699 206.537 424.627 207.358 421.698 208.558C419.323 209.506 417.235 211.053 415.637 213.048C414.148 215.077 413.385 217.548 413.472 220.063C413.374 221.851 413.728 223.635 414.504 225.25C415.279 226.864 416.449 228.257 417.907 229.3C421.235 231.498 425.177 232.583 429.163 232.398Z" fill="white"/>
<path d="M500.704 250.871V108.147H530.437V161.813H531.338C532.826 158.631 534.739 155.666 537.024 152.997C539.717 149.836 543.041 147.271 546.783 145.468C551.491 143.302 556.639 142.265 561.819 142.44C569.458 142.389 576.955 144.501 583.442 148.531C590.042 152.6 595.319 158.711 599.274 166.864C603.229 175.017 605.203 185.225 605.195 197.486C605.195 209.435 603.28 219.505 599.45 227.698C595.619 235.89 590.409 242.091 583.817 246.3C577.235 250.511 569.564 252.705 561.749 252.613C556.703 252.755 551.689 251.78 547.064 249.76C543.318 248.054 539.961 245.599 537.2 242.547C534.824 239.913 532.853 236.942 531.349 233.731H530.027V250.871H500.704ZM529.781 197.345C529.661 203.013 530.561 208.656 532.437 214.006C533.914 218.33 536.568 222.156 540.102 225.055C543.669 227.622 547.957 228.997 552.352 228.984C556.748 228.972 561.028 227.572 564.58 224.985C568.111 222.045 570.756 218.184 572.221 213.831C574.051 208.531 574.934 202.951 574.83 197.345C574.935 191.804 574.064 186.287 572.256 181.047C570.806 176.735 568.17 172.918 564.651 170.033C561.12 167.32 556.757 165.915 552.306 166.057C547.91 165.921 543.597 167.273 540.067 169.892C536.55 172.727 533.905 176.496 532.437 180.766C530.558 186.087 529.658 191.704 529.781 197.345Z" fill="white"/>
<path d="M669.797 252.964C658.79 252.964 649.32 250.723 641.387 246.241C633.524 241.825 627.15 235.176 623.074 227.136C618.792 218.897 616.654 209.131 616.662 197.836C616.662 186.822 618.8 177.161 623.074 168.852C627.124 160.775 633.406 154.027 641.176 149.408C648.977 144.731 658.123 142.393 668.615 142.393C675.355 142.335 682.052 143.479 688.39 145.772C694.401 147.967 699.871 151.423 704.432 155.909C709.199 160.713 712.854 166.504 715.139 172.874C717.832 180.54 719.128 188.626 718.965 196.749V204.933H628.515V186.542H690.999C691.079 182.576 690.119 178.658 688.214 175.177C686.404 171.93 683.737 169.241 680.503 167.402C677.019 165.475 673.088 164.503 669.106 164.584C664.911 164.499 660.773 165.571 657.148 167.683C653.751 169.684 650.946 172.548 649.016 175.984C647.046 179.507 646.015 183.476 646.02 187.512V205.05C645.897 209.796 646.912 214.503 648.981 218.776C650.845 222.509 653.766 225.611 657.382 227.697C661.319 229.862 665.761 230.944 670.253 230.831C673.332 230.869 676.396 230.399 679.321 229.44C681.943 228.581 684.341 227.151 686.342 225.254C688.332 223.349 689.858 221.013 690.8 218.426L718.286 220.238C716.991 226.635 714.046 232.584 709.744 237.495C705.195 242.565 699.504 246.481 693.14 248.918C685.69 251.747 677.765 253.121 669.797 252.964Z" fill="white"/>
<path d="M787.487 143.831V166.128H722.967V143.831H787.487ZM737.616 118.179H767.325V217.982C767.213 220.177 767.643 222.365 768.577 224.354C769.335 225.792 770.579 226.915 772.088 227.523C773.769 228.159 775.556 228.469 777.353 228.435C778.759 228.434 780.161 228.305 781.542 228.049L784.748 227.453L789.429 249.55C787.931 250.006 785.848 250.556 783.145 251.187C779.913 251.882 776.622 252.273 773.316 252.356C766.917 252.753 760.506 251.781 754.513 249.504C749.38 247.505 745.005 243.947 742.004 239.332C739.017 234.725 737.55 228.914 737.605 221.899L737.616 118.179Z" fill="white"/>
<path d="M846.588 252.964C835.566 252.964 826.092 250.723 818.166 246.241C810.304 241.825 803.93 235.176 799.854 227.136C795.579 218.897 793.442 209.131 793.442 197.836C793.442 186.822 795.579 177.161 799.854 168.852C803.904 160.775 810.186 154.027 817.956 149.408C825.756 144.731 834.903 142.393 845.395 142.393C852.135 142.334 858.832 143.478 865.17 145.772C871.183 147.961 876.654 151.418 881.212 155.909C885.983 160.711 889.638 166.502 891.918 172.874C894.622 180.537 895.922 188.625 895.756 196.749V204.933H805.295V186.542H867.791C867.867 182.575 866.903 178.657 864.994 175.177C863.188 171.931 860.524 169.241 857.295 167.402C853.807 165.474 849.871 164.502 845.886 164.584C841.691 164.5 837.554 165.572 833.928 167.683C830.532 169.682 827.73 172.547 825.807 175.984C823.834 179.506 822.798 183.476 822.8 187.512V205.05C822.68 209.797 823.699 214.504 825.772 218.777C827.629 222.514 830.553 225.618 834.173 227.698C838.11 229.863 842.552 230.945 847.045 230.831C850.12 230.87 853.18 230.4 856.101 229.44C858.725 228.586 861.124 227.156 863.122 225.254C865.112 223.347 866.641 221.012 867.592 218.426L895.066 220.238C893.774 226.637 890.829 232.586 886.524 237.495C881.979 242.565 876.292 246.481 869.932 248.919C862.481 251.746 854.557 253.12 846.588 252.964Z" fill="white"/>
<path d="M996.421 174.348L969.216 176.031C968.758 173.711 967.729 171.54 966.22 169.718C964.588 167.76 962.52 166.211 960.183 165.193C957.377 163.986 954.343 163.404 951.29 163.486C947.196 163.339 943.143 164.339 939.589 166.374C936.43 168.303 934.909 170.863 934.909 174.079C934.894 175.32 935.163 176.548 935.694 177.67C936.225 178.793 937.005 179.779 937.974 180.556C940.026 182.325 943.536 183.744 948.505 184.812L967.894 188.705C978.308 190.841 986.073 194.279 991.19 199.018C996.308 203.757 998.862 209.993 998.854 217.725C998.97 224.402 996.794 230.917 992.688 236.187C988.253 241.723 982.432 245.99 975.815 248.557C967.97 251.643 959.591 253.149 951.161 252.988C936.98 252.988 925.692 250.026 917.298 244.102C913.247 241.342 909.833 237.749 907.287 233.562C904.74 229.376 903.118 224.694 902.532 219.829L931.784 218.286C932.125 220.281 932.869 222.184 933.971 223.881C935.074 225.578 936.512 227.032 938.196 228.154C941.59 230.407 945.939 231.533 951.243 231.533C956.548 231.533 960.74 230.524 963.822 228.505C967.02 226.478 968.639 223.863 968.678 220.66C968.668 219.361 968.353 218.083 967.76 216.928C967.167 215.772 966.311 214.772 965.261 214.007C963.03 212.269 959.586 210.932 954.929 209.996L936.383 206.302C925.922 204.221 918.145 200.596 913.051 195.428C907.957 190.26 905.414 183.69 905.422 175.716C905.266 169.334 907.237 163.082 911.027 157.944C915.129 152.711 920.612 148.726 926.858 146.439C934.521 143.601 942.651 142.233 950.822 142.405C964.348 142.405 975.008 145.262 982.801 150.975C986.588 153.695 989.758 157.183 992.105 161.21C994.452 165.237 995.922 169.714 996.421 174.348Z" fill="white"/>
<path d="M180.562 108.147H156.692C154.172 108.147 152.128 110.188 152.128 112.707V245.844C152.128 248.362 154.172 250.404 156.692 250.404H180.562C183.082 250.404 185.125 248.362 185.125 245.844V112.707C185.125 110.188 183.082 108.147 180.562 108.147Z" fill="white"/>
<path d="M237.254 191.207V167.355C237.254 164.837 235.211 162.795 232.69 162.795H104.563C102.043 162.795 99.9999 164.837 99.9999 167.355V191.207C99.9999 193.725 102.043 195.767 104.563 195.767H232.69C235.211 195.767 237.254 193.725 237.254 191.207Z" fill="white"/>
<path d="M1029.07 106.347H1044.11L1095.79 230.282H1097.04L1148.72 106.347H1163.75V248.673H1151.51V133.8H1150.34L1102.27 248.673H1090.45L1042.38 133.8H1041.21V248.673H1028.97L1029.07 106.347Z" fill="white"/>
<path d="M1224.91 251.106C1218.81 251.181 1212.77 249.886 1207.24 247.317C1202.05 244.926 1197.63 241.121 1194.51 236.339C1191.25 231.103 1189.62 225.02 1189.83 218.859C1189.68 214.232 1190.7 209.642 1192.81 205.519C1194.84 201.877 1197.76 198.814 1201.31 196.621C1205.34 194.149 1209.72 192.301 1214.31 191.137C1219.75 189.713 1225.28 188.666 1230.86 188.004C1236.85 187.271 1241.92 186.624 1246.07 186.063C1249.37 185.751 1252.58 184.856 1255.56 183.421C1256.61 182.862 1257.48 182.014 1258.06 180.977C1258.64 179.941 1258.9 178.759 1258.83 177.575V175.084C1258.83 167.796 1256.66 162.059 1252.33 157.874C1248 153.688 1241.76 151.591 1233.61 151.583C1225.91 151.583 1219.64 153.275 1214.8 156.658C1210.33 159.594 1206.79 163.743 1204.61 168.619L1192.85 164.374C1194.97 158.938 1198.41 154.116 1202.86 150.344C1207.08 146.876 1211.95 144.299 1217.2 142.768C1222.41 141.226 1227.82 140.439 1233.26 140.429C1237.57 140.459 1241.85 140.996 1246.03 142.031C1250.45 143.096 1254.64 144.971 1258.37 147.561C1262.33 150.356 1265.51 154.11 1267.62 158.47C1269.96 163.147 1271.13 169.043 1271.13 176.16V248.65H1258.74V231.767H1257.97C1256.3 235.176 1254.07 238.279 1251.36 240.945C1248.21 244.065 1244.48 246.543 1240.38 248.241C1235.47 250.237 1230.2 251.212 1224.91 251.106ZM1226.57 239.788C1232.57 239.939 1238.5 238.422 1243.69 235.403C1248.4 232.591 1252.26 228.549 1254.85 223.711C1257.48 218.786 1258.83 213.277 1258.77 207.693V192.272C1257.39 193.374 1255.8 194.171 1254.09 194.61C1251.65 195.375 1249.16 195.988 1246.65 196.446C1243.84 196.983 1241.05 197.428 1238.27 197.802C1235.48 198.176 1232.98 198.503 1230.76 198.772C1225.49 199.351 1220.31 200.528 1215.31 202.28C1211.52 203.533 1208.14 205.773 1205.51 208.769C1203.15 211.789 1201.94 215.547 1202.1 219.374C1202.1 225.859 1204.42 230.875 1209.05 234.421C1213.69 237.968 1219.52 239.757 1226.57 239.788Z" fill="white"/>
<path d="M1338.3 141.925V152.694H1287.32V141.925H1338.3ZM1303.2 116.355H1315.65V220.811C1315.65 225.254 1316.43 228.738 1317.99 231.264C1319.36 233.645 1321.45 235.522 1323.97 236.619C1326.46 237.669 1329.13 238.202 1331.83 238.186C1333.23 238.204 1334.62 238.098 1336 237.87C1337.17 237.659 1338.19 237.437 1339.06 237.215L1341.71 248.404C1340.26 248.934 1338.77 249.363 1337.26 249.691C1335.11 250.115 1332.92 250.311 1330.72 250.275C1326.18 250.279 1321.69 249.255 1317.6 247.282C1313.14 245.223 1309.39 241.883 1306.83 237.687C1304.28 233.491 1303.03 228.63 1303.25 223.723L1303.2 116.355Z" fill="white"/>
<path d="M1396.67 250.906C1386.7 250.906 1378.07 248.568 1370.79 243.891C1363.44 239.156 1357.59 232.434 1353.92 224.506C1349.96 216.228 1347.98 206.695 1347.98 195.907C1347.79 186.027 1349.82 176.231 1353.92 167.238C1357.53 159.305 1363.23 152.506 1370.41 147.572C1377.62 142.762 1386.12 140.273 1394.78 140.44C1400.52 140.428 1406.21 141.503 1411.55 143.609C1417.01 145.775 1421.95 149.065 1426.05 153.266C1430.56 157.947 1434.03 163.525 1436.24 169.635C1438.9 177.09 1440.17 184.967 1440 192.879V198.994H1356.53V188.085H1427.34C1427.45 181.67 1426.04 175.32 1423.23 169.553C1420.65 164.256 1416.69 159.752 1411.76 156.517C1406.51 153.279 1400.43 151.617 1394.26 151.729C1388.09 151.841 1382.07 153.722 1376.94 157.148C1371.76 160.809 1367.61 165.736 1364.88 171.459C1361.95 177.53 1360.44 184.187 1360.47 190.926V197.45C1360.29 205.089 1361.79 212.673 1364.88 219.665C1367.55 225.675 1371.91 230.78 1377.43 234.362C1382.32 237.206 1387.77 238.937 1393.41 239.43C1399.04 239.923 1404.71 239.167 1410.02 237.215C1413.64 235.773 1416.93 233.609 1419.68 230.854C1422.21 228.328 1424.22 225.344 1425.63 222.062L1437.33 225.885C1435.59 230.552 1432.87 234.794 1429.36 238.325C1425.44 242.279 1420.76 245.387 1415.59 247.457C1409.57 249.849 1403.14 251.022 1396.67 250.906Z" fill="white"/>
</svg>
