<svg viewBox="0 0 415 48" fill="none" xmlns="http://www.w3.org/2000/svg">
<path d="M33.7035 39.6165C33.7035 39.4871 33.7291 39.3591 33.7787 39.2396C33.8284 39.1201 33.9011 39.0116 33.9928 38.9203C34.0846 38.829 34.1934 38.7567 34.3131 38.7075C34.4329 38.6583 34.5612 38.6332 34.6906 38.6337H46.8617C49.6194 38.6337 51.9444 38.1411 53.8367 37.156C55.7393 36.1569 57.2442 34.5396 58.1034 32.571C59.0676 30.4971 59.5498 27.8162 59.5498 24.5284C59.5498 21.2405 59.0676 18.5764 58.1034 16.5363C57.2463 14.5752 55.7449 12.9653 53.8475 11.973C51.9649 10.9974 49.6435 10.5085 46.8834 10.506H34.6906C34.5612 10.5065 34.4329 10.4815 34.3131 10.4323C34.1934 10.3831 34.0846 10.3108 33.9928 10.2195C33.9011 10.1282 33.8284 10.0197 33.7787 9.90023C33.7291 9.78076 33.7035 9.65267 33.7035 9.52331V3.50394C33.7035 3.37441 33.729 3.24616 33.7786 3.12649C33.8282 3.00682 33.901 2.89806 33.9926 2.80646C34.0843 2.71487 34.1931 2.64226 34.3129 2.59269C34.4326 2.54312 34.561 2.51758 34.6906 2.51758H47.3787C51.819 2.51758 55.641 3.39677 58.8447 5.15513C62.0186 6.88511 64.5987 9.52868 66.25 12.7426C67.9808 16.0304 68.8462 19.965 68.8462 24.5464C68.8462 29.1278 67.9808 33.0756 66.25 36.39C64.5907 39.609 61.9986 42.2532 58.8121 43.9774C55.5868 45.743 51.7298 46.6258 47.2413 46.6258H34.6906C34.561 46.6258 34.4326 46.6003 34.3129 46.5507C34.1931 46.5012 34.0843 46.4285 33.9926 46.3369C33.901 46.2453 33.8282 46.1366 33.7786 46.0169C33.729 45.8973 33.7035 45.769 33.7035 45.6394V39.6165Z" fill="white"/>
<path d="M78.9887 9.28141C77.6835 9.30503 76.4218 8.81295 75.4777 7.91209C75.016 7.50062 74.6466 6.99628 74.3936 6.43215C74.1406 5.86802 74.0099 5.2568 74.0099 4.63863C74.0099 4.02046 74.1406 3.40929 74.3936 2.84515C74.6466 2.28102 75.016 1.77669 75.4777 1.36522C76.4344 0.487222 77.6861 0 78.9851 0C80.2841 0 81.5358 0.487222 82.4925 1.36522C82.9502 1.77913 83.316 2.28426 83.5663 2.84806C83.8166 3.41187 83.946 4.02182 83.946 4.63863C83.946 5.25544 83.8166 5.86539 83.5663 6.42919C83.316 6.993 82.9502 7.49817 82.4925 7.91209C81.5522 8.81422 80.2921 9.30667 78.9887 9.28141ZM74.3568 46.6224V13.5448H83.5375V46.6224H74.3568Z" fill="white"/>
<path d="M99.0893 47.2473C97.1505 47.281 95.2266 46.9029 93.445 46.1381C91.8467 45.4452 90.4865 44.2997 89.5326 42.843C88.5683 41.3977 88.0862 39.578 88.0862 37.3836C88.0344 35.7797 88.3823 34.188 89.0987 32.7517C89.7512 31.5323 90.6999 30.4961 91.8576 29.7384C93.0804 28.9508 94.424 28.3687 95.835 28.015C97.3775 27.6174 98.9494 27.3443 100.536 27.1984C102.464 26.9961 104.017 26.8058 105.193 26.6275C106.372 26.4469 107.225 26.1795 107.757 25.8182C108.016 25.6443 108.226 25.4061 108.366 25.1269C108.507 24.8476 108.572 24.5369 108.556 24.2249V24.0948C108.556 22.7339 108.128 21.6789 107.272 20.9297C106.416 20.1806 105.211 19.8073 103.656 19.8097C102.005 19.8097 100.69 20.171 99.7113 20.8936C98.7774 21.5585 98.0947 22.5181 97.7731 23.6179L89.2614 22.9386C89.6495 21.0113 90.5203 19.2138 91.7925 17.7142C93.1246 16.197 94.8079 15.0285 96.6956 14.3106C98.9244 13.4766 101.291 13.072 103.671 13.1183C105.454 13.1109 107.231 13.327 108.961 13.7614C110.569 14.1578 112.095 14.8368 113.466 15.7667C114.768 16.6587 115.836 17.8509 116.579 19.2425C117.375 20.8075 117.768 22.546 117.722 24.3008V46.6114H109.026V42.0228H108.765C108.235 43.0589 107.511 43.9837 106.632 44.7471C105.691 45.5606 104.601 46.1829 103.421 46.5789C102.025 47.0433 100.561 47.2692 99.0893 47.2473ZM101.718 40.9136C102.959 40.9397 104.188 40.6632 105.298 40.1079C106.286 39.6126 107.126 38.8647 107.731 37.9401C108.325 37.0083 108.633 35.9231 108.617 34.8184V31.3065C108.25 31.5275 107.855 31.6977 107.442 31.8123C106.893 31.9779 106.335 32.1142 105.771 32.2206C105.154 32.3434 104.536 32.4518 103.917 32.5457C103.298 32.6397 102.738 32.7228 102.235 32.7915C101.265 32.922 100.316 33.1757 99.4111 33.5466C98.6773 33.8396 98.032 34.3176 97.5381 34.934C97.078 35.5611 96.8424 36.3247 96.8692 37.1018C96.8387 37.6544 96.9484 38.2057 97.188 38.7047C97.4275 39.2036 97.7892 39.634 98.2396 39.9561C99.2683 40.6356 100.486 40.9708 101.718 40.9136Z" fill="white"/>
<path d="M123.825 46.6222V2.51758H133.013V19.1015H133.292C133.752 18.1183 134.343 17.2018 135.049 16.3773C135.881 15.4003 136.908 14.6078 138.065 14.0505C139.519 13.3813 141.111 13.0609 142.711 13.1147C145.072 13.0991 147.388 13.7518 149.393 14.9971C151.433 16.2544 153.063 18.1429 154.286 20.6624C155.508 23.1819 156.118 26.3361 156.115 30.125C156.115 33.8175 155.523 36.9296 154.34 39.4611C153.156 41.9927 151.546 43.9088 149.509 45.2095C147.475 46.5108 145.104 47.189 142.689 47.1606C141.13 47.2042 139.581 46.9031 138.152 46.279C136.994 45.7515 135.957 44.9929 135.103 44.0497C134.369 43.236 133.76 42.3179 133.295 41.3255H132.887V46.6222H123.825ZM132.811 30.0816C132.774 31.8331 133.052 33.577 133.632 35.2302C134.088 36.5664 134.908 37.7488 136 38.6446C137.102 39.4377 138.427 39.8627 139.786 39.8588C141.144 39.8549 142.467 39.4224 143.564 38.6229C144.656 37.7145 145.473 36.5212 145.926 35.176C146.491 33.5382 146.764 31.8139 146.732 30.0816C146.764 28.3691 146.495 26.6643 145.936 25.045C145.488 23.7126 144.674 22.5332 143.586 21.6415C142.495 20.8031 141.147 20.369 139.771 20.4131C138.413 20.371 137.08 20.7886 135.989 21.5982C134.902 22.4741 134.085 23.6388 133.632 24.9583C133.051 26.6026 132.773 28.3384 132.811 30.0816Z" fill="white"/>
<path d="M176.079 47.269C172.677 47.269 169.751 46.5765 167.299 45.1914C164.87 43.8269 162.9 41.7722 161.64 39.2877C160.317 36.7417 159.657 33.7236 159.659 30.2334C159.659 26.8299 160.319 23.8443 161.64 21.2766C162.892 18.7806 164.833 16.6954 167.234 15.2681C169.645 13.8229 172.471 13.1003 175.713 13.1003C177.796 13.0823 179.866 13.4359 181.824 14.1444C183.682 14.8228 185.372 15.8909 186.782 17.2769C188.255 18.7617 189.384 20.5513 190.09 22.5195C190.922 24.8884 191.323 27.3872 191.273 29.8974V32.4265H163.322V26.7432H182.631C182.655 25.5176 182.359 24.3069 181.77 23.2313C181.21 22.2278 180.386 21.3968 179.387 20.8286C178.311 20.2332 177.096 19.9328 175.865 19.9578C174.569 19.9316 173.29 20.2629 172.17 20.9153C171.12 21.5338 170.253 22.4188 169.657 23.4806C169.048 24.5693 168.729 25.796 168.731 27.043V32.4626C168.693 33.9292 169.007 35.3836 169.646 36.7044C170.222 37.8578 171.125 38.8165 172.242 39.4611C173.459 40.1301 174.831 40.4642 176.22 40.4295C177.171 40.4412 178.118 40.2959 179.022 39.9995C179.832 39.7341 180.573 39.2923 181.191 38.706C181.806 38.1175 182.278 37.3956 182.569 36.596L191.063 37.156C190.662 39.1329 189.753 40.9711 188.423 42.4889C187.017 44.0556 185.259 45.2656 183.292 46.0189C180.99 46.8931 178.541 47.3175 176.079 47.269Z" fill="white"/>
<path d="M212.447 13.5447V20.4348H192.509V13.5447H212.447ZM197.036 5.61768H206.217V36.4588C206.182 37.1369 206.315 37.8132 206.604 38.4279C206.838 38.8723 207.222 39.2192 207.688 39.407C208.208 39.6037 208.76 39.6994 209.316 39.6888C209.75 39.6887 210.183 39.6488 210.61 39.5696L211.601 39.3853L213.047 46.214C212.584 46.3549 211.941 46.5247 211.105 46.7198C210.107 46.9345 209.09 47.0555 208.068 47.0811C206.091 47.2037 204.11 46.9032 202.257 46.1996C200.671 45.582 199.319 44.4826 198.392 43.0562C197.469 41.6327 197.016 39.837 197.032 37.6691L197.036 5.61768Z" fill="white"/>
<path d="M230.711 47.269C227.304 47.269 224.377 46.5765 221.928 45.1915C219.498 43.8269 217.528 41.7722 216.269 39.2877C214.948 36.7417 214.287 33.7236 214.287 30.2334C214.287 26.8299 214.948 23.8443 216.269 21.2766C217.52 18.7806 219.461 16.6954 221.863 15.2681C224.273 13.8229 227.1 13.1003 230.342 13.1003C232.425 13.082 234.494 13.4356 236.453 14.1445C238.311 14.8211 240.002 15.8894 241.41 17.277C242.884 18.7608 244.014 20.5507 244.719 22.5195C245.554 24.8877 245.956 27.3869 245.905 29.8974V32.4265H217.95V26.7432H237.263C237.286 25.5173 236.988 24.3066 236.398 23.2313C235.84 22.2281 235.017 21.397 234.019 20.8286C232.941 20.2327 231.725 19.9323 230.494 19.9579C229.197 19.932 227.919 20.2632 226.798 20.9153C225.749 21.5331 224.883 22.4184 224.289 23.4806C223.679 24.5691 223.359 25.7957 223.36 27.0431V32.4627C223.323 33.9295 223.638 35.384 224.278 36.7044C224.852 37.8593 225.755 38.8186 226.874 39.4612C228.091 40.1304 229.463 40.4646 230.852 40.4295C231.802 40.4416 232.748 40.2962 233.65 39.9995C234.461 39.7357 235.202 39.2938 235.82 38.706C236.435 38.1168 236.907 37.3951 237.201 36.596L245.691 37.156C245.292 39.1333 244.382 40.9718 243.052 42.4889C241.647 44.0555 239.89 45.2656 237.924 46.0189C235.622 46.8927 233.173 47.3172 230.711 47.269Z" fill="white"/>
<path d="M277.012 22.975L268.605 23.4953C268.464 22.7781 268.146 22.1075 267.679 21.5442C267.175 20.9394 266.536 20.4606 265.814 20.1459C264.947 19.7731 264.009 19.5931 263.066 19.6184C261.801 19.573 260.548 19.8821 259.45 20.5109C258.473 21.107 258.003 21.8983 258.003 22.8919C257.999 23.2754 258.082 23.655 258.246 24.0018C258.41 24.3485 258.651 24.6535 258.951 24.8935C259.585 25.4403 260.669 25.8787 262.205 26.2087L268.196 27.4118C271.415 28.0718 273.814 29.134 275.396 30.5985C276.977 32.063 277.766 33.99 277.764 36.3794C277.8 38.4428 277.127 40.4561 275.858 42.0844C274.488 43.7953 272.689 45.114 270.644 45.907C268.22 46.8608 265.631 47.3263 263.026 47.2765C258.643 47.2765 255.155 46.3611 252.561 44.5305C251.31 43.6777 250.255 42.5672 249.468 41.2735C248.681 39.9798 248.18 38.5329 247.998 37.0298L257.038 36.5529C257.143 37.1692 257.373 37.7575 257.714 38.2819C258.054 38.8062 258.499 39.2555 259.019 39.6023C260.068 40.2984 261.412 40.6465 263.051 40.6465C264.69 40.6465 265.986 40.3345 266.938 39.7107C267.926 39.0844 268.427 38.2763 268.439 37.2863C268.436 36.885 268.338 36.4901 268.155 36.1331C267.972 35.7761 267.707 35.4669 267.383 35.2305C266.693 34.6933 265.629 34.2802 264.19 33.9912L258.459 32.8495C255.226 32.2064 252.823 31.0863 251.249 29.4893C249.675 27.8923 248.889 25.8618 248.891 23.3977C248.843 21.4258 249.452 19.4938 250.623 17.9058C251.891 16.2887 253.585 15.0574 255.516 14.3506C257.884 13.4737 260.396 13.0508 262.921 13.1041C267.101 13.1041 270.395 13.9869 272.803 15.7524C273.973 16.593 274.953 17.6707 275.678 18.9152C276.403 20.1597 276.858 21.5431 277.012 22.975Z" fill="white"/>
<path d="M24.8953 2.51758H17.519C16.7401 2.51758 16.1088 3.14845 16.1088 3.92667V45.0686C16.1088 45.8468 16.7401 46.4777 17.519 46.4777H24.8953C25.6742 46.4777 26.3055 45.8468 26.3055 45.0686V3.92667C26.3055 3.14845 25.6742 2.51758 24.8953 2.51758Z" fill="white"/>
<path d="M42.4142 28.1848V20.8141C42.4142 20.0359 41.7829 19.405 41.004 19.405L1.41023 19.405C0.631405 19.405 3.43323e-05 20.0359 3.43323e-05 20.8141V28.1848C3.43323e-05 28.963 0.631405 29.5939 1.41023 29.5939H41.004C41.7829 29.5939 42.4142 28.963 42.4142 28.1848Z" fill="white"/>
<path d="M287.1 1.96118H291.75L307.718 40.2596H308.105L324.076 1.96118H328.719V45.943H324.936V10.4447H324.575L309.721 45.943H306.069L291.215 10.4447H290.853V45.943H287.071L287.1 1.96118Z" fill="white"/>
<path d="M347.619 46.6947C345.734 46.7179 343.868 46.3178 342.159 45.524C340.555 44.7849 339.191 43.6091 338.225 42.1314C337.219 40.5134 336.715 38.6337 336.778 36.7298C336.732 35.2999 337.049 33.8815 337.701 32.6073C338.327 31.4821 339.23 30.5356 340.326 29.8578C341.572 29.094 342.926 28.5227 344.343 28.1633C346.024 27.723 347.734 27.3995 349.459 27.195C351.308 26.9686 352.875 26.7686 354.16 26.5952C355.178 26.4988 356.171 26.2223 357.092 25.7786C357.416 25.606 357.684 25.3439 357.863 25.0236C358.042 24.7032 358.124 24.3382 358.101 23.9721V23.2025C358.101 20.9504 357.432 19.1776 356.094 17.8841C354.757 16.5906 352.828 15.9427 350.309 15.9403C347.93 15.9403 345.992 16.463 344.495 17.5083C343.114 18.4157 342.022 19.698 341.345 21.2045L337.711 19.8929C338.366 18.213 339.43 16.7228 340.807 15.5573C342.109 14.4856 343.616 13.6891 345.236 13.216C346.848 12.7397 348.52 12.4964 350.201 12.4934C351.531 12.5026 352.855 12.6687 354.146 12.9884C355.512 13.3174 356.805 13.8968 357.96 14.6974C359.183 15.5611 360.166 16.7211 360.817 18.0684C361.54 19.5136 361.902 21.3358 361.902 23.5349V45.9359H358.072V40.7186H357.837C357.321 41.7722 356.63 42.7311 355.794 43.5549C354.819 44.5191 353.666 45.2847 352.399 45.8095C350.882 46.4262 349.256 46.7274 347.619 46.6947ZM348.132 43.1972C349.987 43.2441 351.819 42.775 353.422 41.8423C354.879 40.9732 356.072 39.7242 356.872 38.2292C357.686 36.7072 358.102 35.0048 358.083 33.2794V28.5138C357.658 28.8545 357.165 29.1008 356.637 29.2364C355.883 29.4728 355.115 29.6622 354.337 29.8036C353.469 29.9698 352.609 30.1071 351.748 30.2227C350.888 30.3383 350.114 30.4395 349.427 30.5226C347.8 30.7014 346.198 31.0651 344.654 31.6065C343.483 31.9937 342.437 32.686 341.624 33.6118C340.895 34.5449 340.522 35.7063 340.572 36.8888C340.572 38.8928 341.287 40.4428 342.719 41.5388C344.151 42.6348 345.956 43.1876 348.132 43.1972Z" fill="white"/>
<path d="M382.66 12.9557V16.2833H366.906V12.9557H382.66ZM371.813 5.05396H375.66V37.333C375.66 38.706 375.901 39.7827 376.383 40.5631C376.805 41.2988 377.453 41.879 378.231 42.2179C379 42.5424 379.826 42.7071 380.661 42.702C381.092 42.7076 381.523 42.675 381.948 42.6045C382.31 42.5395 382.624 42.4708 382.895 42.4022L383.713 45.8598C383.264 46.0234 382.805 46.1562 382.339 46.2573C381.673 46.3885 380.996 46.449 380.317 46.438C378.914 46.439 377.528 46.1228 376.264 45.513C374.885 44.8767 373.726 43.8446 372.936 42.548C372.146 41.2515 371.76 39.7492 371.827 38.2327L371.813 5.05396Z" fill="white"/>
<path d="M400.697 46.633C397.616 46.633 394.95 45.9104 392.698 44.4652C390.428 43.0022 388.621 40.9247 387.488 38.4748C386.263 35.9167 385.651 32.9709 385.651 29.6372C385.593 26.5841 386.221 23.5569 387.488 20.778C388.601 18.3266 390.362 16.2253 392.583 14.7008C394.809 13.2143 397.437 12.4451 400.114 12.4968C401.888 12.493 403.646 12.8253 405.296 13.476C406.982 14.1454 408.509 15.1622 409.776 16.4604C411.169 17.907 412.242 19.6304 412.925 21.5186C413.746 23.8225 414.139 26.2566 414.086 28.7014V30.5911H388.294V27.2201H410.174C410.209 25.2378 409.774 23.2755 408.905 21.4934C408.108 19.8564 406.883 18.4646 405.361 17.4648C403.737 16.4642 401.86 15.9507 399.952 15.9853C398.044 16.0199 396.187 16.6011 394.6 17.6599C393 18.7913 391.716 20.3139 390.872 22.0823C389.967 23.9583 389.501 26.0155 389.509 28.0981V30.1141C389.454 32.4746 389.92 34.8182 390.872 36.979C391.699 38.836 393.046 40.4137 394.752 41.5206C396.262 42.3996 397.948 42.9343 399.688 43.0867C401.429 43.2391 403.182 43.0054 404.822 42.4022C405.941 41.9566 406.957 41.2878 407.809 40.4367C408.589 39.656 409.212 38.7338 409.646 37.7196L413.262 38.9011C412.725 40.3434 411.885 41.6541 410.799 42.7454C409.589 43.9671 408.14 44.9276 406.543 45.5672C404.684 46.3065 402.697 46.6688 400.697 46.633Z" fill="white"/>
</svg>
